<svg width="45" height="34" viewBox="0 0 45 34" fill="none" xmlns="http://www.w3.org/2000/svg">
    <a href="#">
        <rect width="45" height="45" fill="white" fill-opacity="0" />
        <path
            d="M29.986 23.1921C27.7199 23.0452 25.9382 21.1897 25.9382 18.9215C25.9382 18.8458 25.9397 18.7701 25.9442 18.6944V18.7048C25.9397 18.6336 25.9367 18.5504 25.9367 18.4658C25.9367 16.2021 27.7214 14.3526 29.974 14.2175H29.986C32.2491 14.3392 34.0368 16.1843 34.0368 18.4436C34.0368 18.5356 34.0338 18.6262 34.0278 18.7167V18.7048C34.0323 18.779 34.0353 18.8666 34.0353 18.9542C34.0353 21.2149 32.2491 23.063 29.9965 23.1907H29.9845L29.986 23.1921ZM15.0395 23.1921C12.7734 23.0452 10.9917 21.1897 10.9917 18.9215C10.9917 18.8458 10.9932 18.7701 10.9977 18.6944V18.7048C10.9932 18.6336 10.9902 18.5504 10.9902 18.4658C10.9902 16.2021 12.7749 14.3526 15.0275 14.2175H15.0395C17.3026 14.3392 19.0903 16.1843 19.0903 18.4436C19.0903 18.5356 19.0873 18.6262 19.0813 18.7167V18.7048C19.0858 18.7761 19.0888 18.8592 19.0888 18.9438C19.0888 21.2075 17.3041 23.0571 15.0515 23.1921H15.0395ZM38.0862 2.85894C35.4421 1.62393 32.3706 0.647195 29.1551 0.0816413L28.9317 0.0489849C28.9242 0.0475005 28.9152 0.0460164 28.9062 0.0460164C28.8537 0.0460164 28.8087 0.0742197 28.7847 0.115783C28.4338 0.725868 28.0528 1.48736 27.7094 2.26815L27.6449 2.43292C26.1002 2.18799 24.3184 2.04846 22.5037 2.04846C20.6891 2.04846 18.9073 2.18799 17.1691 2.45667L17.3626 2.43143C16.9577 1.49627 16.5707 0.736258 16.1433 0L16.2048 0.114298C16.1793 0.071251 16.1328 0.0445314 16.0803 0.0445314C16.0728 0.0445314 16.0638 0.044532 16.0563 0.0460164C12.6174 0.644226 9.54591 1.61947 6.67539 2.95097L6.90185 2.85597C6.87635 2.86636 6.85536 2.88417 6.84186 2.90644C2.56157 8.90487 0 16.3684 0 24.4242C0 25.7705 0.071988 27.0991 0.211465 28.4083L0.197967 28.245C0.202466 28.2881 0.224963 28.3237 0.256457 28.3489C3.46592 30.7254 7.1973 32.6403 11.2241 33.8976L11.4881 33.9688C11.5001 33.9733 11.5151 33.9748 11.5301 33.9748C11.5781 33.9748 11.6201 33.9525 11.6456 33.9184C12.4479 32.8496 13.2113 31.6383 13.8727 30.3677L13.9432 30.2193C13.9522 30.2014 13.9582 30.1792 13.9582 30.1554C13.9582 30.0946 13.9192 30.0441 13.8652 30.0233H13.8637C12.4959 29.5008 11.3396 28.9442 10.2388 28.3059L10.3543 28.3682C10.3108 28.343 10.2823 28.297 10.2823 28.245C10.2823 28.199 10.3048 28.1574 10.3393 28.1322C10.5747 27.957 10.8117 27.7759 11.0367 27.5919C11.0607 27.5726 11.0922 27.5607 11.1251 27.5607C11.1461 27.5607 11.1656 27.5652 11.1821 27.5726H11.1806C14.4921 29.1475 18.3794 30.0678 22.4828 30.0678C26.5861 30.0678 30.4749 29.1475 33.9453 27.5043L33.7849 27.5726C33.8029 27.5637 33.8224 27.5592 33.8449 27.5592C33.8779 27.5592 33.9094 27.5711 33.9333 27.5904C34.1583 27.7745 34.3938 27.9585 34.6322 28.1322C34.6667 28.1589 34.6892 28.2005 34.6892 28.2465C34.6892 28.2985 34.6607 28.343 34.6202 28.3682C33.6289 28.9546 32.4726 29.5097 31.2683 29.9684L31.1108 30.0218C31.0568 30.0426 31.0178 30.0946 31.0178 30.1539C31.0178 30.1777 31.0238 30.2 31.0343 30.2193C31.7857 31.6443 32.5476 32.8526 33.3904 34L33.3304 33.9154C33.3559 33.951 33.3994 33.9748 33.4459 33.9748C33.4609 33.9748 33.4759 33.9718 33.4894 33.9688C37.7862 32.6448 41.5236 30.7299 44.835 28.2806L44.7375 28.3504C44.7705 28.3267 44.7915 28.2895 44.796 28.248C44.9265 27.0842 45 25.7334 45 24.3663C45 16.3283 42.4324 8.88409 38.0667 2.79214L38.1446 2.90792C38.1326 2.88417 38.1116 2.86488 38.0877 2.85449L38.0862 2.85894Z"
            fill="white" />
    </a>
</svg>