<svg width="44" height="44" viewBox="0 0 44 44" fill="none" xmlns="http://www.w3.org/2000/svg">
    <a href="https://github.com/peachyy1" target="_blank">
        <rect width="45" height="45" fill="white" fill-opacity="0" />
        <path
            d="M22 0.125C9.91992 0.125 0.125 10.1738 0.125 22.5566C0.125 32.4688 6.39453 40.8672 15.0859 43.8359C15.2078 43.8624 15.3323 43.8755 15.457 43.875C16.2676 43.875 16.5801 43.2793 16.5801 42.7617C16.5801 42.2246 16.5605 40.8184 16.5508 38.9434C15.8272 39.113 15.0869 39.2014 14.3438 39.207C10.1348 39.207 9.17773 35.9355 9.17773 35.9355C8.18164 33.3477 6.74609 32.6543 6.74609 32.6543C4.8418 31.3164 6.73633 31.2773 6.88281 31.2773H6.89258C9.08984 31.4727 10.2422 33.6016 10.2422 33.6016C11.3359 35.5156 12.8008 36.0527 14.1094 36.0527C14.9746 36.0354 15.8265 35.8358 16.6094 35.4668C16.8047 34.0215 17.3711 33.0352 17.9961 32.4688C13.1426 31.9023 8.03516 29.9785 8.03516 21.3848C8.03516 18.9336 8.88477 16.9316 10.2812 15.3691C10.0566 14.8027 9.30469 12.5176 10.4961 9.43164C10.6559 9.3934 10.8202 9.37698 10.9844 9.38281C11.7754 9.38281 13.5625 9.68555 16.5117 11.7363C20.0953 10.7337 23.8852 10.7337 27.4688 11.7363C30.418 9.68555 32.2051 9.38281 32.9961 9.38281C33.1603 9.37698 33.3246 9.3934 33.4844 9.43164C34.6758 12.5176 33.9238 14.8027 33.6992 15.3691C35.0957 16.9414 35.9453 18.9434 35.9453 21.3848C35.9453 29.998 30.8281 31.8926 25.9551 32.4492C26.7363 33.1426 27.4395 34.5098 27.4395 36.5996C27.4395 39.5977 27.4102 42.0195 27.4102 42.752C27.4102 43.2793 27.7129 43.875 28.5234 43.875C28.6546 43.8756 28.7856 43.8625 28.9141 43.8359C37.6152 40.8672 43.875 32.459 43.875 22.5566C43.875 10.1738 34.0801 0.125 22 0.125Z"
            fill="white" />
    </a>
</svg>