<svg width="100" height="100" viewBox="0 0 100 100" fill="none" xmlns="http://www.w3.org/2000/svg">
    <path
        d="M79.6719 18.9453C79.6719 18.9453 84.6484 15.0781 87.4141 12.3125C90.8203 8.90624 91.8359 5.33593 90.6484 4.91405C89.4609 4.49218 84.8594 5.33593 84.8594 5.33593L71.0781 12.0547L67.5859 17.2422L79.6719 18.9453Z"
        fill="#69A246" />
    <path
        d="M22.1563 17.1563C22.1563 17.1563 19.2656 16.1328 16.0313 12.6484C12.875 9.24219 11.9453 6.94531 12.375 5.67188C12.7969 4.39844 28.5391 9.07813 28.5391 9.07813L39.0078 13.7578L41.7266 19.375L22.1563 17.1563Z"
        fill="#69A246" />
    <path
        d="M52.3594 17.4141C52.3594 17.4141 55.6797 10.7813 61.0391 7.96876C66.3984 5.15626 72.0156 4.56251 80.6094 4.22658C89.2031 3.89064 90.6484 4.90626 90.6484 4.90626C90.6484 4.90626 84.1797 7.96876 77.9688 10.8594C71.7578 13.75 66.7344 17.5781 66.7344 17.5781L53.4688 27.625L35.4297 14.1797C35.4297 14.1797 29.1328 11.0313 23.9453 9.07814C18.7578 7.12501 12.375 5.67189 12.375 5.67189C12.375 5.67189 13.6328 4.06251 25.4766 4.64845C37.3906 5.2422 41.8125 8.21876 45.3828 10.3516C48.9531 12.4844 52.3594 17.4141 52.3594 17.4141Z"
        fill="#82B032" />
    <path
        d="M53.2969 19.2891C55.25 19.1172 59.5312 13.1797 71.2266 14.125C82.9219 15.0625 100.766 28.3437 95.9609 53.25C93.3516 66.7969 86.3047 75.5312 73.2813 85C64.0781 91.6875 54.7109 95.9375 50.3828 96C46.4844 96.0625 41.1094 87.5312 41.1094 87.5312L53.2969 19.2891Z"
        fill="url(#paint0_radial_20_280)" />
    <path
        d="M53.2969 19.2891C55.25 19.1172 59.5312 13.1797 71.2266 14.125C82.1953 15.0078 98.5625 26.7344 96.6094 48.7187C96.4766 50.1875 94.9766 56.4922 92.0156 56.8047C77.5781 58.3516 70.6719 40.6797 66.9531 36.0234C59.8437 27.1406 53.2969 19.2891 53.2969 19.2891Z"
        fill="url(#paint1_radial_20_280)" />
    <path
        d="M52.7578 19.4453C54.7109 19.2734 59.5312 13.1797 71.2266 14.1172C80.1094 14.8281 92.5234 22.6563 95.8984 37.2813C96.6875 40.7188 92.1641 44.6563 89.2188 45.1641C80.2187 46.7188 69.4531 33.6484 65.7266 28.9922C60.6719 22.6719 56.5547 21.2891 54.4219 20.5703C53.5625 20.2734 52.7578 19.4453 52.7578 19.4453Z"
        fill="url(#paint2_radial_20_280)" />
    <path
        d="M69.0469 52.2969L67.3359 70.2969L59.8906 87.2109L53.6797 94.8125C53.6797 94.8125 51.9062 95.9219 50.3906 95.9922C48.8672 96.0547 37.5391 92.7969 27.4531 85.9687C17.3672 79.1406 9.35937 70.9609 5.88281 61.7656C1.53906 50.2812 1.38281 32.8984 11.7812 23.2812C22.1797 13.6641 32.4219 12.2656 41.1094 14.125C49.7969 15.9844 52.4375 18.9375 54.1484 20.3359C55.8594 21.7344 63.1484 30.5781 63.1484 30.5781L68.8906 45.3203L69.0469 52.2969Z"
        fill="url(#paint3_radial_20_280)" />
    <path
        d="M44.3984 74.375C25.4922 76.7187 9.30469 65.3828 5.82813 56.1875C3.42188 49.8359 2.35938 47.25 3.59375 39.5937C4.59375 33.4219 6.91407 27.8828 11.7734 23.2812C21.4688 14.1015 32.5313 12.0391 41.5781 14.1328C50.2344 16.1328 52.4297 18.9375 54.1328 20.3359C55.8359 21.7344 63.1328 30.5781 63.1328 30.5781L68.875 45.3203C68.8906 45.3203 70.0625 71.1953 44.3984 74.375Z"
        fill="url(#paint4_radial_20_280)" />
    <path
        d="M53.0547 94.8828C53.3906 94.9766 56.6328 93.4141 58.6719 90.875C64.1484 84.0391 71.1015 74.5391 72.3359 56.9375C74.1875 30.5312 57.0469 20.8047 56.0078 20.3359C54.9687 19.875 53.4609 19.875 54.6172 21.1484C55.7734 22.4219 68.6328 36.7813 66.8906 56.3594C65.3359 73.875 58.4375 87.2812 56 90.2969C53.5781 93.3047 52.0781 94.6016 53.0547 94.8828Z"
        fill="url(#paint5_radial_20_280)" />
    <path
        d="M22.1172 39.7969C22.1172 39.7969 19.6484 45.7578 14.6797 41.8281C11.9766 39.6875 12.1563 34.1641 14.7891 29.5547C18.0078 23.8984 24.0781 20.0078 32.1797 18.9063C39.4141 17.9219 44.3281 19.9766 45.2266 24.2422C46.3203 29.3984 41.7344 29.1875 41.7344 29.1875C28.8672 28.7813 24 35.5156 22.1172 39.7969Z"
        fill="url(#paint6_radial_20_280)" />
    <path
        d="M18.4531 45.2891C17.9531 39.6406 21.5 33.2656 27.4297 29.6563C33.5234 25.9453 41.1094 25.4609 46.9531 28.3594L18.4531 45.2891Z"
        fill="url(#paint7_radial_20_280)" />
    <path
        d="M22.1172 39.7969C22.1172 39.7969 19.6484 45.7578 14.6797 41.8281C11.9766 39.6875 12.1563 34.1641 14.7891 29.5547C18.0078 23.8984 24.0781 20.0078 32.1797 18.9063C39.4141 17.9219 44.3281 19.9766 45.2266 24.2422C46.3203 29.3984 41.7344 29.1875 41.7344 29.1875C28.8672 28.7813 24 35.5156 22.1172 39.7969Z"
        fill="url(#paint8_radial_20_280)" />
    <defs>
        <radialGradient id="paint0_radial_20_280" cx="0" cy="0" r="1" gradientUnits="userSpaceOnUse"
            gradientTransform="translate(61.7641 13.2101) scale(69.382 69.382)">
            <stop offset="0.719" stop-color="#FE622B" />
            <stop offset="0.78" stop-color="#FB582C" />
            <stop offset="0.886" stop-color="#F23D2F" />
            <stop offset="1" stop-color="#E71932" />
        </radialGradient>
        <radialGradient id="paint1_radial_20_280" cx="0" cy="0" r="1" gradientUnits="userSpaceOnUse"
            gradientTransform="translate(80.4399 26.4231) rotate(143.814) scale(22.1482 48.2255)">
            <stop offset="0.371" stop-color="#FF9759" />
            <stop offset="0.747" stop-color="#FF9759" stop-opacity="0" />
        </radialGradient>
        <radialGradient id="paint2_radial_20_280" cx="0" cy="0" r="1" gradientUnits="userSpaceOnUse"
            gradientTransform="translate(41.8211 12.0953) scale(39.6086 39.6086)">
            <stop offset="0.481" stop-color="#FF9759" />
            <stop offset="1" stop-color="#FF9759" stop-opacity="0" />
        </radialGradient>
        <radialGradient id="paint3_radial_20_280" cx="0" cy="0" r="1" gradientUnits="userSpaceOnUse"
            gradientTransform="translate(43.1336 22.7219) scale(60.0555 60.0555)">
            <stop offset="0.701" stop-color="#FE622B" />
            <stop offset="0.766" stop-color="#FD5D2B" />
            <stop offset="0.84" stop-color="#F8502D" />
            <stop offset="0.917" stop-color="#F1392F" />
            <stop offset="0.998" stop-color="#E71A32" />
            <stop offset="0.999" stop-color="#E71932" />
        </radialGradient>
        <radialGradient id="paint4_radial_20_280" cx="0" cy="0" r="1" gradientUnits="userSpaceOnUse"
            gradientTransform="translate(34.9074 14.3485) rotate(88.9858) scale(57.0928 45.4721)">
            <stop offset="0.638" stop-color="#FF9759" />
            <stop offset="1" stop-color="#FF9759" stop-opacity="0" />
        </radialGradient>
        <radialGradient id="paint5_radial_20_280" cx="0" cy="0" r="1" gradientUnits="userSpaceOnUse"
            gradientTransform="translate(60.8969 13.6109) scale(66.9883 66.9883)">
            <stop offset="0.499" stop-color="#F34124" />
            <stop offset="0.999" stop-color="#D10D22" />
        </radialGradient>
        <radialGradient id="paint6_radial_20_280" cx="0" cy="0" r="1" gradientUnits="userSpaceOnUse"
            gradientTransform="translate(26.1201 27.8244) rotate(-28.2103) scale(18.2262 9.26351)">
            <stop offset="0.345" stop-color="#FEBD92" />
            <stop offset="1" stop-color="#FEBD92" stop-opacity="0" />
        </radialGradient>
        <radialGradient id="paint7_radial_20_280" cx="0" cy="0" r="1" gradientUnits="userSpaceOnUse"
            gradientTransform="translate(34.0704 39.87) rotate(-30.8811) scale(17.4839 11.942)">
            <stop offset="0.799" stop-color="#FF9759" />
            <stop offset="1" stop-color="#FF9759" stop-opacity="0" />
        </radialGradient>
        <radialGradient id="paint8_radial_20_280" cx="0" cy="0" r="1" gradientUnits="userSpaceOnUse"
            gradientTransform="translate(27.8095 30.9244) rotate(-29.6646) scale(17.4032 10.1463)">
            <stop offset="0.745" stop-color="#FF9759" stop-opacity="0" />
            <stop offset="0.974" stop-color="#FF9759" />
        </radialGradient>
    </defs>
</svg>