<svg width="41" height="41" viewBox="0 0 41 41" fill="none" xmlns="http://www.w3.org/2000/svg">
    <path
        d="M38.4004 31.3321C36.9427 29.8633 33.4122 27.7199 31.6992 26.856C29.4686 25.7324 29.285 25.6407 27.5316 26.9433C26.3622 27.8126 25.5846 28.5892 24.2159 28.2973C22.8473 28.0053 19.873 26.3594 17.2688 23.7634C14.6645 21.1674 12.9231 18.1069 12.6303 16.7428C12.3374 15.3787 13.1269 14.6103 13.9879 13.4381C15.2015 11.7857 15.1097 11.5104 14.0724 9.27969C13.2637 7.54473 11.0578 4.04727 9.58352 2.59688C8.00645 1.03909 8.00645 1.31448 6.99026 1.73674C6.16296 2.08483 5.36928 2.50794 4.61915 3.00079C3.1504 3.97659 2.33524 4.78715 1.76518 6.0053C1.19512 7.22344 0.939011 10.0792 3.88294 15.4273C6.82686 20.7754 8.89229 23.51 13.1673 27.7731C17.4423 32.0361 20.7295 34.3283 25.5351 37.0235C31.4798 40.3529 33.7601 39.7039 34.9819 39.1348C36.2037 38.5657 37.0179 37.7578 37.9956 36.2891C38.4897 35.5402 38.9138 34.7474 39.2624 33.9207C39.6856 32.9082 39.9609 32.9082 38.4004 31.3321Z"
        stroke="white" stroke-width="2" stroke-miterlimit="10" />
</svg>