<svg width="50" height="48" viewBox="0 0 50 48" fill="none" xmlns="http://www.w3.org/2000/svg">
    <a href="#">
        <rect width="50" height="50" fill="white" fill-opacity="0" />
        <path
            d="M12.1438 8.44374C10.8938 11.2437 11.3875 16.2604 11.5875 19.7687C10.2375 20.5167 8.50417 19.2042 7.52292 19.2042C6.50208 19.2042 5.28333 19.875 5.09167 20.875C4.95417 21.5958 5.27708 22.6458 7.59375 23.5604C8.48958 23.9146 10.6208 24.3312 11.1146 25.4937C11.8083 27.1271 7.55208 34.6667 0.868755 35.7667C0.345838 35.8521 -0.0270793 36.3187 0.0020873 36.8479C0.118754 38.8792 4.67292 39.675 6.69167 39.9875C6.89792 40.2667 7.06458 41.4458 7.32917 42.3437C7.44792 42.7458 7.75417 43.2271 8.54167 43.2271C9.56875 43.2271 11.275 42.4354 14.2458 42.9271C17.1583 43.4125 19.8958 47.5417 25.1521 47.5417C30.0375 47.5417 32.9521 43.3937 35.7562 42.9271C37.3792 42.6583 38.7729 42.7437 40.3312 43.0479C41.4041 43.2583 42.3666 43.375 42.6729 42.3208C42.9417 41.4104 43.1062 40.2542 43.3083 39.9812C45.3083 39.6708 49.8833 38.8771 49.9979 36.8458C50.0271 36.3167 49.6542 35.8521 49.1312 35.7646C42.5604 34.6812 38.175 27.1646 38.8854 25.4917C39.3771 24.3312 41.4937 23.9187 42.4062 23.5583C44.1021 22.8896 44.9521 22.0667 44.9333 21.1146C44.9104 19.8958 43.4437 19.1687 42.3646 19.1687C41.2666 19.1687 39.6896 20.4687 38.4125 19.7646C38.6125 16.2271 39.1041 11.2333 37.8562 8.4354C35.4916 3.13749 30.2312 0.458313 24.9729 0.458313C19.7479 0.458313 14.5271 3.09999 12.1438 8.44374Z"
            fill="white" />
    </a>
</svg>